<svg id="Warstwa_1" xmlns="http://www.w3.org/2000/svg" viewBox="0 0 179.3 41.4"><style>.st0{fill:#fff}.st1{fill:#f4bd47}.st2{fill:#cb982b}.st3{fill:#4d9d45}.st4{fill:#82bd41}</style><path class="st0" d="M157.6 25.8h-2.3v-5.1H150v5.1h-2.3V14.4h2.3v4.4h5.3v-4.4h2.3v11.4zm4.6 0h-2.3V14.4h4.2c.6 0 1.2.1 1.7.2s1 .3 1.4.5c.4.3.7.6.9 1 .2.4.3 1 .3 1.7s-.1 1.2-.3 1.7c-.2.4-.5.8-.9 1-.4.3-.8.5-1.3.6-.5.1-1.1.2-1.7.2h-2.1v4.5zm0-6.4h1.9c.2 0 .5 0 .7-.1.2 0 .4-.1.6-.2.2-.1.4-.3.5-.5.1-.2.2-.5.2-.8 0-.3-.1-.6-.2-.8-.2-.2-.4-.4-.6-.5-.2-.1-.5-.2-.8-.2h-2.3v3.1zm13.1 6.7c-.9 0-1.7-.1-2.5-.4-.7-.3-1.4-.7-2-1.2-.5-.5-1-1.2-1.3-1.9-.3-.7-.5-1.6-.5-2.5 0-.9.2-1.8.5-2.5s.7-1.4 1.3-1.9c.5-.5 1.2-.9 2-1.2.8-.3 1.6-.4 2.5-.4.3 0 .7 0 1 .1.3.1.7.2 1 .3.3.1.7.3 1 .5.3.2.5.4.7.6l-1.7 1.4c-.2-.3-.5-.5-.9-.6-.8-.4-1.9-.3-2.8 0-.4.2-.8.5-1.1.8-.3.4-.6.8-.7 1.3-.2.5-.3 1-.3 1.6 0 .6.1 1.1.3 1.6.2.5.4.9.7 1.2.3.4.7.6 1.1.8.4.2.9.3 1.4.3.6 0 1.1-.1 1.5-.4.4-.2.7-.5.9-.8l1.9 1.4c-.5.6-1 1-1.7 1.3-.8.5-1.5.6-2.3.6zM64.6 14.4h4.1c.8 0 1.6.1 2.2.3.6.2 1.2.4 1.6.7.5.3.8.7 1.1 1.1.3.4.5.8.7 1.2.2.4.3.8.4 1.3.1.4.1.8.1 1.2 0 .7-.1 1.4-.4 2.1-.3.7-.7 1.3-1.2 1.8s-1.2 1-2 1.3c-.8.3-1.7.5-2.8.5h-3.8V14.4zm1.5 10h2c.7 0 1.3-.1 1.9-.3.6-.2 1.1-.4 1.6-.8s.8-.8 1.1-1.3c.3-.5.4-1.2.4-1.9 0-.4-.1-.8-.2-1.3s-.3-1-.7-1.4c-.3-.4-.8-.8-1.4-1.1-.6-.3-1.4-.5-2.3-.5h-2.4v8.6zm8.8-10h1.8l3.4 9.3 3.6-9.3h1.7l-4.6 11.4h-1.5l-4.4-11.4zm22.4 0h2.1l6.4 9.4v-9.4h1.6v11.4h-2l-6.5-9.4v9.4h-1.6V14.4zm21.3 2.5c-.3-.4-.7-.7-1.3-1-.5-.2-1-.3-1.6-.3-.7 0-1.3.1-1.8.4-.5.2-1 .6-1.4 1-.4.4-.7.9-.9 1.5-.2.6-.3 1.2-.3 1.8 0 .6.1 1.2.3 1.7.2.5.5 1 .9 1.4.4.4.8.7 1.4 1 .5.2 1.2.4 1.8.4.7 0 1.3-.1 1.8-.4.5-.3.9-.6 1.3-1.1l1.3 1c-.1.1-.2.3-.5.5-.2.2-.5.4-.9.7-.4.2-.8.4-1.3.6-.5.2-1.1.2-1.8.2-.9 0-1.8-.2-2.5-.5s-1.4-.8-1.9-1.4c-.5-.6-.9-1.2-1.2-1.9-.3-.7-.4-1.4-.4-2.1 0-.9.1-1.7.4-2.4.3-.7.7-1.4 1.2-1.9s1.2-1 1.9-1.3c.7-.3 1.6-.5 2.5-.5.8 0 1.5.1 2.3.4.7.3 1.4.7 1.8 1.3l-1.1.9zm3.5-2.5h7.5v1.5h-6v3.4h5.6v1.5h-5.6v3.7h6.3V26h-7.8V14.4zm9.8 0h4.1c.8 0 1.6.1 2.2.3.6.2 1.2.4 1.6.7s.8.7 1.1 1.1c.3.4.5.8.7 1.2.2.4.3.8.4 1.3.1.4.1.8.1 1.2 0 .7-.1 1.4-.4 2.1-.3.7-.7 1.3-1.2 1.8s-1.2 1-2 1.3-1.7.5-2.8.5h-3.8V14.4zm1.6 10h2c.7 0 1.3-.1 1.9-.3.6-.2 1.1-.4 1.6-.8s.8-.8 1.1-1.3c.3-.5.4-1.2.4-1.9 0-.4-.1-.8-.2-1.3s-.3-1-.7-1.4c-.3-.4-.8-.8-1.4-1.1-.6-.3-1.4-.5-2.3-.5h-2.4v8.6zm-42.6-10h-1.5l-5.1 11.4h1.8l1.2-2.8.6-1.3 2.2-5.3 2.1 5.2.7 1.4 1.1 2.8h1.9zm-32.6 0h-1.5l-5.1 11.4h1.8l1.2-2.8.5-1.3 2.3-5.3 2.1 5.2.6 1.4 1.2 2.8h1.9z"/><path class="st1" d="M5.6 37.9L0 35.2V9.6l5.6 2.6z"/><path class="st2" d="M5.5 7l5.3 2.5-5.2 2.7L0 9.6z"/><path class="st3" d="M20.1 0l-5.5 2.6 20 9.6 5.5-2.6zm-7.3 3.5L7.3 6.1l20 9.6 5.6-2.7z"/><path class="st1" d="M12.8 41.4l-5.5-2.7V13l5.5 2.7z"/><path class="st2" d="M12.8 10.4l5.3 2.6-5.3 2.7L7.3 13z"/><path class="st4" d="M34.6 37.9l5.5-2.7V9.6l-5.5 2.6zm-7.3 3.5l5.6-2.7V13l-5.6 2.7z"/></svg>