<?xml version="1.0" encoding="iso-8859-1"?>
<!-- Generator: Adobe Illustrator 19.0.0, SVG Export Plug-In . SVG Version: 6.00 Build 0)  -->
<svg version="1.1" id="Capa_1" xmlns="http://www.w3.org/2000/svg" xmlns:xlink="http://www.w3.org/1999/xlink" x="0px" y="0px"
	 viewBox="0 0 512 512" style="enable-background:new 0 0 512 512;" xml:space="preserve">
<path style="fill:#8EAD5A;" d="M260.8,2.6c-2.844-2.133-6.756-2.133-9.6,0L0,191v293c0,8.396,3.832,15.896,9.843,20.848
	C14.508,508.691,20.484,511,27,511h463c12.15,0,22-9.85,22-22V191L260.8,2.6z"/>
<path style="fill:#DBD9E2;" d="M472,199H40c-4.418,0-8,3.582-8,8v192c0,4.418,3.582,8,8,8h432c4.418,0,8-3.582,8-8V207
	C480,202.581,476.418,199,472,199z"/>
<path style="fill:#EDECF1;" d="M472,31H40c-4.418,0-8,3.582-8,8v192c0,4.418,3.582,8,8,8h432c4.418,0,8-3.582,8-8V39
	C480,34.581,476.418,31,472,31z"/>
<path style="fill:#BBD492;" d="M256,351L32,511h458c12.15,0,22-9.85,22-22V191L256,351z"/>
<polygon style="opacity:0.6;fill:#8EAD5A;enable-background:new    ;" points="204.8,383 204.799,383 225.333,370.167 "/>
<path style="fill:#BBD492;" d="M512,191L266.4,344.5l244.075,152.547c0.981-2.493,1.525-5.206,1.525-8.047L512,191L512,191z"/>
<path style="opacity:0.6;fill:#8EAD5A;enable-background:new    ;" d="M225.333,370.167L204.799,383L32,511h458
	c9.309,0,17.262-5.785,20.475-13.953L266.4,344.5L225.333,370.167z"/>
<g>
	<path style="fill:#BBD492;" d="M0,191v298c0,6.841,3.123,12.952,8.02,16.987L256,351L0,191z"/>
	<path style="fill:#BBD492;" d="M8.02,505.987C11.821,509.119,16.691,511,22,511h468c5.309,0,10.179-1.881,13.98-5.013L256,351
		L8.02,505.987z"/>
</g>
<path style="fill:#F09C48;" d="M416,87h-64c-4.418,0-8,3.582-8,8v80c0,4.418,3.582,8,8,8h64c4.418,0,8-3.582,8-8V95
	C424,90.581,420.418,87,416,87z"/>
<rect x="360" y="103" style="fill:#EDBC53;" width="48" height="64"/>
<g>
	<path style="fill:#A4A0B8;" d="M320,103H96c-4.418,0-8-3.582-8-8s3.582-8,8-8h224c4.418,0,8,3.582,8,8S324.418,103,320,103z"/>
	<path style="fill:#A4A0B8;" d="M216,143H96c-4.418,0-8-3.582-8-8s3.582-8,8-8h120c4.418,0,8,3.582,8,8S220.418,143,216,143z"/>
	<path style="fill:#A4A0B8;" d="M320,143h-72c-4.418,0-8-3.582-8-8s3.582-8,8-8h72c4.418,0,8,3.582,8,8S324.418,143,320,143z"/>
	<path style="fill:#A4A0B8;" d="M256,183H96c-4.418,0-8-3.582-8-8s3.582-8,8-8h160c4.418,0,8,3.582,8,8S260.418,183,256,183z"/>
	<path style="fill:#A4A0B8;" d="M320,183h-32c-4.418,0-8-3.582-8-8s3.582-8,8-8h32c4.418,0,8,3.582,8,8S324.418,183,320,183z"/>
</g>
<g>
	<path style="fill:#928DA9;" d="M336,279h-40c-4.418,0-8-3.582-8-8s3.582-8,8-8h40c4.418,0,8,3.582,8,8S340.418,279,336,279z"/>
	<path style="fill:#928DA9;" d="M264,279h-88c-4.418,0-8-3.582-8-8s3.582-8,8-8h88c4.418,0,8,3.582,8,8S268.418,279,264,279z"/>
	<path style="fill:#928DA9;" d="M240,319h-24c-4.418,0-8-3.582-8-8s3.582-8,8-8h24c4.418,0,8,3.582,8,8S244.418,319,240,319z"/>
	<path style="fill:#928DA9;" d="M288,319h-16c-4.418,0-8-3.582-8-8s3.582-8,8-8h16c4.418,0,8,3.582,8,8S292.418,319,288,319z"/>
</g>
<g>
</g>
<g>
</g>
<g>
</g>
<g>
</g>
<g>
</g>
<g>
</g>
<g>
</g>
<g>
</g>
<g>
</g>
<g>
</g>
<g>
</g>
<g>
</g>
<g>
</g>
<g>
</g>
<g>
</g>
</svg>
