<svg height="448pt" viewBox="0 0 448 448" width="448pt" xmlns="http://www.w3.org/2000/svg"><path d="m32 144h-8c-11.714844-.003906-21.71875 8.449219-23.671875 20l31.671875 22.054688zm0 0"/><path d="m269.488281 288 130.511719-90.824219v-133.175781h-40c-13.253906 0-24-10.746094-24-24v-40h-272c-8.835938 0-16 7.164062-16 16v181.175781l130.511719 90.824219zm90.511719-208c4.417969 0 8 3.582031 8 8s-3.582031 8-8 8h-272c-4.417969 0-8-3.582031-8-8s3.582031-8 8-8zm8 56c0 4.417969-3.582031 8-8 8h-272c-4.417969 0-8-3.582031-8-8s3.582031-8 8-8h272c4.417969 0 8 3.582031 8 8zm-216-104h144c4.417969 0 8 3.582031 8 8s-3.582031 8-8 8h-144c-4.417969 0-8-3.582031-8-8s3.582031-8 8-8zm-80 32c-4.417969 0-8-3.582031-8-8v-16c0-13.253906 10.746094-24 24-24h16c4.417969 0 8 3.582031 8 8s-3.582031 8-8 8h-16c-4.417969 0-8 3.582031-8 8v16c0 4.417969-3.582031 8-8 8zm8 120c0-4.417969 3.582031-8 8-8h272c4.417969 0 8 3.582031 8 8s-3.582031 8-8 8h-272c-4.417969 0-8-3.582031-8-8zm48 48c0-4.417969 3.582031-8 8-8h176c4.417969 0 8 3.582031 8 8s-3.582031 8-8 8h-176c-4.417969 0-8-3.582031-8-8zm0 0"/><path d="m360 48h28.6875l-36.6875-36.6875v28.6875c0 4.417969 3.582031 8 8 8zm0 0"/><path d="m0 183.304688v240.695312c0 12.015625 8.890625 22.183594 20.800781 23.785156l142.984375-150.539062zm0 0"/><path d="m179.441406 304-136.800781 144h362.71875l-136.800781-144zm0 0"/><path d="m427.199219 447.785156c11.910156-1.601562 20.800781-11.769531 20.800781-23.785156v-240.695312l-163.785156 113.941406zm0 0"/><path d="m424 144h-8v42.054688l31.671875-22.015626c-1.933594-11.566406-11.945313-20.039062-23.671875-20.039062zm0 0"/></svg>